<svg width="180" height="60" viewBox="0 0 180 60" fill="none" xmlns="http://www.w3.org/2000/svg">
<path fill-rule="evenodd" clip-rule="evenodd" d="M180 0H0V60H180V0ZM177.273 44.1757C177.674 44.1757 178 43.8505 178 43.4168C178 43.0048 177.674 42.6578 177.248 42.6578H161.732V15.7697C161.757 15.6829 161.757 15.6179 161.732 15.5311C161.657 15.1842 161.256 14.9457 160.855 15.0107C160.454 15.0758 160.178 15.4227 160.253 15.7697V43.4168C160.228 43.7854 160.553 44.1323 161.005 44.1757H177.273ZM140.141 15.7589V34.9709C140.316 40.0667 135.704 44.3168 129.813 44.4685C123.923 44.6203 119.009 40.6305 118.834 35.5348V34.9709V15.7589C118.859 15.3253 119.286 15 119.762 15.0217C120.213 15.0434 120.589 15.3469 120.614 15.7589V34.9709C120.539 39.221 124.449 42.7122 129.337 42.7772C134.25 42.8423 138.286 39.4596 138.361 35.2312V34.9709V15.7589C138.361 15.3253 138.762 15 139.239 15C139.74 15 140.141 15.3469 140.141 15.7589ZM89.8659 30.3523C94.7538 30.3523 98.7394 26.9262 98.7394 22.6762C98.7394 18.4478 94.7538 15 89.8409 15H73.0465C72.9713 15 72.9212 15 72.846 15.0217C72.4449 15.1084 72.1441 15.412 72.1441 15.7806C72.1692 16.1926 72.5452 16.5396 73.0465 16.5396H89.8409C93.7763 16.5396 96.9597 19.2717 96.9597 22.6762C96.9597 26.0805 93.8013 28.8344 89.8659 28.8344H84.5269H73.0465C72.5703 28.8344 72.1943 29.1597 72.1692 29.5716V43.4277C72.1692 43.8397 72.5452 44.2084 73.0465 44.2084C73.5228 44.2084 73.949 43.8831 73.949 43.4494V30.3523H89.8659ZM52.0493 15.7383V43.4071C52.0243 43.8408 51.5981 44.166 51.1218 44.1443C50.6707 44.1227 50.2947 43.819 50.2696 43.4071V15.7383C50.2947 15.3046 50.7208 14.9793 51.197 15.001C51.6733 15.0444 52.0243 15.348 52.0493 15.7383ZM16.0872 44.1866C23.8577 44.1866 30.1744 40.7606 30.1744 36.5106C30.1744 33.4747 26.9158 30.8293 22.2284 29.5934C26.9408 28.3574 30.1744 25.7119 30.1744 22.6762C30.1744 18.4478 23.8577 15 16.0872 15H2.70185C2.30079 15 2 15.3253 2 15.7589C2 16.1926 2.30079 16.5396 2.70185 16.5396H16.0872C23.0807 16.5396 28.7707 19.2501 28.7707 22.6544C28.7707 26.0589 23.0807 28.8127 16.0872 28.8127H8.34174C8.19135 28.8127 8.04095 28.8561 7.94069 28.9428C7.9311 28.9511 7.92151 28.9562 7.91332 28.9606C7.90011 28.9677 7.89055 28.9728 7.89055 28.9862C7.51456 29.3548 7.53962 29.8969 7.94069 30.2439C8.06601 30.3306 8.19135 30.3739 8.34174 30.3739H16.0872C23.0807 30.3739 28.7707 33.1061 28.7707 36.5106C28.7707 39.9149 23.0807 42.6688 16.0872 42.6688H2.70185C2.30079 42.6688 2 43.0157 2 43.4277C2 43.8397 2.30079 44.1866 2.70185 44.1866H16.0872Z" fill="#2D2D2B"/>
</svg>
